<?xml version="1.0" standalone="no"?><!DOCTYPE svg PUBLIC "-//W3C//DTD SVG 1.1//EN" "http://www.w3.org/Graphics/SVG/1.1/DTD/svg11.dtd"><svg class="icon" width="200px" height="200.00px" viewBox="0 0 1024 1024" version="1.1" xmlns="http://www.w3.org/2000/svg"><path fill="#bfcbd9" d="M829.56 291.237l52.747-21.211 47.637-64.048-63.559-63.488-64.139 47.71-21.047 52.619-158.274 158.328 51.696 45.047z"  /><path fill="#bfcbd9" d="M922.536 722.113l-378.512-329.712c9.926-48.508 27.84-178.579-44.558-250.941-47.602-47.657-110.962-73.903-178.343-73.903-16.501 0-33.056 1.649-49.195 4.837-4.665 0.953-8.327 4.425-9.542 8.903-1.217 3.993-0.040 8.756 3.184 11.962l107.991 108.009 21.628 104.458-88.212 88.176-104.44-21.609-107.991-107.955c-2.243-2.243-5.341-3.629-8.763-3.629-1.281 0-2.516 0.194-3.679 0.555-4.408 1.358-7.759 5.131-8.51 9.774-16.345 82.49 9.485 167.531 69.131 227.196 35.484 35.466 90.802 54.213 160.012 54.213h0.018c29.034 0 60.335-3.333 90.947-9.672l329.116 377.841c27.17 27.206 62.509 41.843 100.112 41.843s72.978-14.635 99.587-41.244c54.882-54.9 54.9-144.217 0.018-199.1zM847.8 846.496c-13.73 13.748-35.954 13.748-49.684 0.019l-0.019-0.019c-13.711-13.73-13.711-35.991 0-49.702 13.73-13.693 35.973-13.693 49.703 0.037h0.019c13.693 13.712 13.693 35.936-0.019 49.666z"  /><path fill="#bfcbd9" d="M376.042 611.152c-12.534-12.534-32.857-12.534-45.41 0l-210.493 210.53c-12.534 12.516-12.534 32.839 0 45.41l82.125 82.162c12.534 12.516 32.857 12.516 45.428 0l204.28-204.262c12.534-12.534 12.534-32.875 0-45.428l-75.931-88.41z"  /></svg>