<?xml version="1.0" standalone="no"?><!DOCTYPE svg PUBLIC "-//W3C//DTD SVG 1.1//EN" "http://www.w3.org/Graphics/SVG/1.1/DTD/svg11.dtd"><svg class="icon" width="200px" height="200.00px" viewBox="0 0 1024 1024" version="1.1" xmlns="http://www.w3.org/2000/svg"><path fill="#bfcbd9" d="M926.67904 262.57408c0.74752-26.19904-9.07776-51.16928-27.6736-70.30272-18.72896-19.27168-44.76416-30.32576-71.41376-30.32576H197.97504c-26.62912 0-51.84 10.5472-70.99392 29.70112C107.8272 210.80064 97.28 236.01152 97.28 262.64064v498.71872c0 26.624 10.54208 51.84 29.696 70.99392 19.15392 19.15392 44.36992 29.70112 70.99392 29.70112v-0.00512h628.0192c26.62912 0 51.84-10.5472 70.99392-29.70112 19.15904-19.15392 29.70624-44.36992 29.70624-70.99392l-0.01024-498.78016z m-122.89536 308.95104c-2.73408 24.31488-11.0336 49.37728-24.66816 74.47552-12.56448 23.14752-29.62432 45.47584-52.16768 68.27008a301.94176 301.94176 0 0 1-96.54784 65.78176c-37.51424 16.03072-77.35296 24.15616-118.42048 24.15616-166.7584 0-302.42304-135.67488-302.42304-302.44352 0-2.97472 0.06144-5.90336 0.14848-8.65792l158.52544 105.64608H270.32576l1.75616 4.1472c41.00096 96.85504 135.168 159.4368 239.90272 159.4368 113.62304 0 213.2736-72.88832 247.96672-181.37088 0.8192-2.59072 1.41824-5.42208 1.9968-8.15616 0.63488-3.00544 1.29536-6.11328 2.23744-8.91904 0.27136-0.84992 0.54784-1.60256 0.83456-2.28352l0.06656-0.16896 0.08192-0.18944a20.1728 20.1728 0 0 1 20.72064-12.08832 20.2752 20.2752 0 0 1 17.8944 22.36416zM415.06304 456.21248c3.00544-41.06752 31.54432-63.92832 85.62176-68.57728v-19.7632h28.53888v20.92032c45.06624 6.21056 72.10496 28.672 81.11616 67.41504l-49.57184 11.6224c-6.00576-20.92032-16.52224-33.70496-31.54432-38.35392V488.7552c59.06944 14.72512 87.61344 39.13216 85.62688 73.22112-1.01376 41.84576-29.55776 65.09056-85.62688 69.73952v24.40704H500.6848v-25.56928c-52.09088-3.09248-82.62144-27.89376-91.63264-74.38848l49.57184-11.62752c6.98368 27.89376 21.03296 44.17024 42.0608 48.8192v-68.57728c-59.1104-13.1584-87.64928-36.0192-85.62176-68.56704z m239.18592-6.4512l99.06688-24.63232-1.34656-3.20512C711.17312 324.54656 616.97536 261.632 511.98464 261.632c-24.27392 0-50.43712 3.64544-73.66144 10.2656-47.99488 13.66016-85.53984 42.3936-108.58496 64.08704a219.45344 219.45344 0 0 0-39.49056 49.85344c-14.49472 24.97024-24.45824 46.59712-30.45376 66.11968a20.12672 20.12672 0 0 1-19.3536 14.33088l-0.37376-0.00512a21.11488 21.11488 0 0 1-5.56544-0.87552c-5.61152-1.72032-9.40544-4.66432-11.56096-8.99072-5.632-11.27936 0.99328-29.56288 5.376-41.66656l0.1024-0.27648c9.51808-26.28096 24.88832-52.5568 46.98624-80.32256 27.7248-34.84672 63.40096-63.64672 103.17824-83.29728 41.72288-20.608 86.60992-31.06304 133.40672-31.06304 166.23104 0 301.57312 134.79424 302.45888 300.81024l-160.19968-70.84032zM563.77344 563.13344c0.97792-14.69952-10.51136-25.56416-34.54976-32.54272v62.76608c23.02464-2.32448 34.54976-12.38016 34.54976-30.22336zM500.6848 427.15648c-24.03328 2.32448-36.05504 10.85952-36.05504 25.56928 0 11.6224 12.02176 21.31968 36.05504 29.056V427.15648z" /></svg>