<?xml version="1.0" standalone="no"?><!DOCTYPE svg PUBLIC "-//W3C//DTD SVG 1.1//EN" "http://www.w3.org/Graphics/SVG/1.1/DTD/svg11.dtd"><svg class="icon" width="200px" height="200.00px" viewBox="0 0 1024 1024" version="1.1" xmlns="http://www.w3.org/2000/svg"><path fill="#bfcbd9" d="M855.8592 311.6032c-36.0448-33.1776-77.824-59.0848-122.6752-77.9264-5.8368 8.8064-12.4928 17.1008-20.0704 24.6784-10.0352 10.0352-21.2992 18.6368-33.5872 25.4976 13.0048 4.3008 25.4976 9.216 37.4784 14.848 12.1856 5.7344 16.896 20.6848 10.1376 32.3584l0 0c-5.9392 10.3424-18.944 14.4384-29.696 9.3184-81.7152-38.6048-172.9536-31.3344-212.992-25.2928-11.776 1.7408-23.04-5.7344-25.8048-17.3056l0-0.1024c-3.1744-13.1072 5.632-26.112 18.944-28.16 7.2704-1.1264 16.0768-2.2528 25.9072-3.1744-2.9696-2.56-5.8368-5.2224-8.6016-7.9872-14.1312-14.1312-25.2928-30.6176-33.0752-49.0496-0.8192-1.9456-1.6384-3.9936-2.3552-5.9392-12.1856 2.048-24.2688 4.608-36.0448 7.5776-68.608-39.936-150.9376-40.0384-199.8848-35.2256-21.2992 2.048-33.8944 24.7808-24.576 44.032l41.472 84.992c-46.08 40.1408-80.896 89.2928-100.4544 144.0768l-50.5856-0.2048c-16.9984-0.1024-30.8224 13.7216-30.8224 30.72l0 113.4592c0 11.4688 6.3488 21.9136 16.4864 27.2384l65.6384 34.2016c27.4432 75.6736 84.2752 140.5952 159.232 185.344L299.9296 940.032c0 19.7632 16.0768 35.84 35.84 35.84l91.9552 0c14.2336 0 27.136-8.4992 32.8704-21.504l23.04-52.9408c19.8656 2.4576 40.0384 3.6864 60.7232 3.6864 32.5632 0 64.2048-3.072 94.6176-8.9088L638.976 940.032c0 19.7632 16.0768 35.84 35.84 35.84l91.5456 0c13.2096 0 25.3952-7.2704 31.6416-18.944 48.7424-91.5456 101.6832-183.3984 140.8-279.2448 19.7632-48.5376 26.9312-100.0448 22.6304-150.3232C954.4704 446.2592 917.6064 368.3328 855.8592 311.6032zM305.7664 502.1696c-25.4976 0-46.08-20.5824-46.08-46.08 0-25.4976 20.5824-46.08 46.08-46.08 25.4976 0 46.08 20.5824 46.08 46.08C351.8464 481.5872 331.264 502.1696 305.7664 502.1696zM558.592 264.192c14.0288 5.5296 29.3888 8.6016 45.4656 8.6016 7.8848 0 15.5648-0.7168 22.9376-2.1504 31.3344-5.8368 58.4704-23.552 76.5952-48.2304 15.0528-20.48 23.9616-45.7728 23.9616-73.216C727.6544 80.896 672.256 25.6 604.0576 25.6c-68.3008 0-123.5968 55.296-123.5968 123.5968 0 17.7152 3.6864 34.5088 10.4448 49.7664C503.9104 228.6592 528.384 252.2112 558.592 264.192z" /></svg>